<svg xmlns="http://www.w3.org/2000/svg" viewBox="-294 -294 1100 1100">
  <style>
    .fg { fill: #000000; }
  </style>
  <path class="fg" d="M157.9948935097873 93.47909720426742Q159.56457817625082 74.01385762195093 173.64016253990906 62.60692881097546Q187.71574690356732 51.19999999999999 206.4484243927131 51.19999999999999Q223.8205381756395 51.19999999999999 233.08215675701132 60.72311559152445Q242.34377533838313 70.2462311830489 240.77409067191957 85.52521916658532Q239.20440600545606 103.5252706893288 225.0241653518283 115.45548095015178Q210.8439246982005 127.38569121097476 191.79731027576207 127.38569121097476Q174.94844600606734 127.38569121097476 165.68682742469554 117.8625756194503Q156.42520884332376 108.33946002792584 157.9948935097873 93.47909720426742ZM139.4717202202753 227.9539027386584Q148.99477193856816 199.69868451707254 133.19278993472642 199.69868451707254Q122.83255176990914 199.69868451707254 114.46062343143342 210.3728276785667Q106.08869509295768 221.04697084006088 96.87958030795754 244.90694424908565L87.6702739032626 269.2906781571949H77.72853315186015L91.75164565576256 230.04690079158522Q99.39107577429918 208.90767155560948 110.48397184213455 197.29152597454242Q121.57686790996992 185.67538039347534 135.02445066057956 180.91379066109732Q148.47203341118922 176.1522009287193 161.8673997949694 176.1522009287193Q179.86725969801807 176.1522009287193 189.39050303600573 182.9544446007315Q198.91374637399338 189.7566882727437 201.9486829732615 200.64027176064008Q204.98361957252962 211.52385524853645 203.4139349060661 224.3434683227133Q201.84425023960256 237.16308139689014 197.65825413374893 249.40713278115842L142.2984939577732 408.99829819006095Q137.4846239853341 423.3352837540245 139.6299661515536 430.29440008283564Q141.77530831777307 437.2535164116468 149.83323584972447 437.2535164116468Q157.99578773502964 437.2535164116468 166.57702865344436 428.14912178984775Q175.15826957185908 419.04472716804867 185.41388338332266 392.04525667963367L194.20456462813956 368.70808567121946H204.146305379542L190.75113061545665 406.90530013713413Q183.2163248502737 427.93996889298774 172.12339684582253 439.60842665073164Q161.03046884137137 451.2768844084756 148.0538234273166 456.0384422042378Q135.0771780132618 460.8 122.2051888891765 460.8Q99.49614724027406 460.8 89.0309972925609 450.64897860527435Q78.56584734484775 440.49795721054875 78.56571959838456 422.39344101753056Q78.56559185192137 404.2889248245124 86.62371100356759 380.84706558951285ZM434.2714668481399 183.4776941139632 432.7017183084447 193.9426843785974H257.4123648970434L260.02861246320197 183.4776941139632ZM307.01753014563906 408.99829819006095Q302.9362222663707 423.7537811674393 308.3255900554867 430.50364878954304Q313.7149578446028 437.2535164116468 323.3426339162494 437.2535164116468Q334.4354980474689 437.2535164116468 345.68533064533483 426.6838379204273Q356.9351632432008 416.11415942920786 366.3535267349083 389.95206700701203L374.09764508003025 368.70808567121946H384.0393858314327L373.4697712134448 399.998304365305Q362.58621966216424 432.335022085854 343.1735796860668 446.567511042927Q323.76093970996936 460.8 297.1797111420428 460.8Q273.84266788009177 460.8 261.4415841559455 450.3872580388111Q249.04050043179927 439.97451607762224 246.73818979893343 421.7653435946346Q244.4358791660676 403.5561711116469 250.9241859047871 380.84706558951285L330.1440472362508 104.99033100243861Q349.19072553192086 104.46708148920692 365.56868440167653 102.89733294951179Q381.9466432714322 101.32758440981667 396.4932607814927 97.66483781719472Z"/>
</svg>
